<svg xmlns="http://www.w3.org/2000/svg" width="360" height="240" viewBox="0 0 360 240">
  <rect width="360" height="240" rx="12" fill="#1e1f22"/>
  <!-- Header -->
  <rect width="360" height="44" rx="12" fill="#2b2d31"/>
  <rect width="360" height="12" y="32" fill="#2b2d31"/>
  <text x="20" y="28" font-size="14" font-weight="bold" fill="white" font-family="Arial">My Ima Lobster — Bot</text>
  <!-- Sidebar -->
  <rect x="0" y="44" width="80" height="196" fill="#2b2d31"/>
  <text x="12" y="68" font-size="10" fill="#949BA4" font-family="Arial">General</text>
  <rect x="4" y="74" width="72" height="20" rx="4" fill="rgba(88,101,242,0.2)"/>
  <text x="12" y="88" font-size="10" fill="#5865F2" font-family="Arial">Bot</text>
  <text x="12" y="108" font-size="10" fill="#949BA4" font-family="Arial">OAuth2</text>
  <!-- Token section -->
  <text x="100" y="74" font-size="16" font-weight="bold" fill="white" font-family="Arial">Bot</text>
  <text x="100" y="100" font-size="12" fill="#949BA4" font-family="Arial">TOKEN</text>
  <rect x="100" y="108" width="200" height="32" rx="4" fill="#1e1f22" stroke="#3f4147" stroke-width="1"/>
  <text x="110" y="129" font-size="11" fill="#2ecc71" font-family="monospace">MTIzNDU2Nzg5•••••••</text>
  <!-- Reset Token button -->
  <rect x="100" y="152" width="120" height="30" rx="4" fill="#5865F2"/>
  <text x="160" y="172" text-anchor="middle" font-size="12" font-weight="600" fill="white" font-family="Arial">Reset Token</text>
  <polygon points="230,167 220,162 220,172" fill="#f2c744"/>
  <text x="236" y="171" font-size="11" fill="#f2c744" font-family="Arial">← 点击获取</text>
  <!-- Intents -->
  <text x="100" y="210" font-size="12" fill="#949BA4" font-family="Arial">Privileged Gateway Intents</text>
  <rect x="100" y="218" width="32" height="16" rx="8" fill="#2ecc71"/>
  <circle cx="124" cy="226" r="6" fill="white"/>
  <text x="140" y="230" font-size="11" fill="#dbdee1" font-family="Arial">Message Content Intent</text>
</svg>