<svg xmlns="http://www.w3.org/2000/svg" width="360" height="280" viewBox="0 0 360 280">
  <rect width="360" height="280" rx="12" fill="#0d0d12"/>
  <text x="20" y="28" font-size="12" fill="#25D366" font-family="monospace">WhatsApp Web QR Code:</text>
  <text x="20" y="48" font-size="11" fill="#a0a0a0" font-family="monospace">Scan with your phone to connect</text>
  <rect x="105" y="64" width="150" height="150" rx="8" fill="white"/>
  <!-- QR Code pattern (simplified) -->
  <g fill="#000">
    <rect x="115" y="74" width="30" height="30" rx="2"/>
    <rect x="215" y="74" width="30" height="30" rx="2"/>
    <rect x="115" y="174" width="30" height="30" rx="2"/>
    <rect x="155" y="74" width="8" height="8"/><rect x="167" y="74" width="8" height="8"/>
    <rect x="155" y="86" width="8" height="8"/><rect x="179" y="86" width="8" height="8"/>
    <rect x="195" y="74" width="8" height="8"/><rect x="155" y="98" width="8" height="8"/>
    <rect x="167" y="110" width="8" height="8"/><rect x="179" y="98" width="8" height="8"/>
    <rect x="195" y="110" width="8" height="8"/><rect x="155" y="122" width="8" height="8"/>
    <rect x="179" y="134" width="8" height="8"/><rect x="195" y="122" width="8" height="8"/>
    <rect x="155" y="146" width="8" height="8"/><rect x="167" y="158" width="8" height="8"/>
    <rect x="155" y="170" width="8" height="8"/><rect x="195" y="158" width="8" height="8"/>
    <rect x="179" y="170" width="8" height="8"/><rect x="167" y="182" width="8" height="8"/>
    <rect x="155" y="194" width="8" height="8"/><rect x="195" y="194" width="8" height="8"/>
  </g>
  <text x="180" y="236" text-anchor="middle" font-size="11" fill="#25D366" font-family="monospace">📱 Open WhatsApp → Settings → Linked Devices</text>
  <text x="180" y="256" text-anchor="middle" font-size="11" fill="#a0a0a0" font-family="monospace">→ Link a Device → Scan this code</text>
</svg>