<svg xmlns="http://www.w3.org/2000/svg" width="360" height="320" viewBox="0 0 360 320">
  <rect width="360" height="320" rx="12" fill="#17212B"/>
  <!-- Header -->
  <rect width="360" height="48" fill="#1C2733"/>
  <circle cx="32" cy="24" r="16" fill="#5BA0D0"/>
  <text x="32" y="28" text-anchor="middle" font-size="14" fill="white" font-family="Arial">🤖</text>
  <text x="56" y="21" font-size="14" font-weight="bold" fill="white" font-family="Arial">BotFather</text>
  <circle cx="120" cy="17" r="7" fill="#3390EC"/>
  <text x="120" y="21" text-anchor="middle" font-size="9" fill="white" font-family="Arial">✓</text>
  <text x="56" y="36" font-size="11" fill="#6C7883" font-family="Arial">bot · online</text>

  <!-- User message: /newbot -->
  <rect x="180" y="60" width="160" height="34" rx="10" fill="#3390EC"/>
  <text x="260" y="82" text-anchor="middle" font-size="13" font-weight="600" fill="white" font-family="monospace">/newbot</text>

  <!-- Bot reply 1 -->
  <rect x="20" y="104" width="280" height="52" rx="10" fill="#2B5278"/>
  <text x="32" y="124" font-size="12" fill="#E1E3E6" font-family="Arial">Alright, a new bot. How are we going</text>
  <text x="32" y="140" font-size="12" fill="#E1E3E6" font-family="Arial">to call it? Please choose a name.</text>

  <!-- User message: name -->
  <rect x="200" y="168" width="140" height="34" rx="10" fill="#3390EC"/>
  <text x="270" y="190" text-anchor="middle" font-size="13" fill="white" font-family="Arial">我的 Ima 龙虾</text>

  <!-- Bot reply 2 -->
  <rect x="20" y="214" width="280" height="52" rx="10" fill="#2B5278"/>
  <text x="32" y="234" font-size="12" fill="#E1E3E6" font-family="Arial">Good. Now let's choose a username.</text>
  <text x="32" y="250" font-size="12" fill="#E1E3E6" font-family="Arial">It must end in 'bot'. Like: TetrisBot</text>

  <!-- User message: username -->
  <rect x="160" y="278" width="180" height="34" rx="10" fill="#3390EC"/>
  <text x="250" y="300" text-anchor="middle" font-size="13" fill="white" font-family="monospace">my_ima_lobster_bot</text>
</svg>