<svg xmlns="http://www.w3.org/2000/svg" viewBox="0 0 48 48" width="48" height="48">
  <!-- Lark/Feishu official logo: blue bird with teal wing tip -->
  <!-- Upper teal wing tip -->
  <path d="M20 6C20 6 28 6 32 14C28 10 22 10 18 12L20 6Z" fill="#34C3A8"/>
  <!-- Main blue body/wing -->
  <path d="M18 12C22 10 28 10 32 14C36 18 40 24 38 30C34 26 28 22 22 20C16 18 8 22 4 28C4 28 6 18 18 12Z" fill="#3B82F6"/>
  <!-- Lower blue tail -->
  <path d="M4 28C8 22 16 18 22 20C28 22 34 26 38 30C40 34 36 38 30 38C24 38 16 36 10 34C6 32 4 30 4 28Z" fill="#1D4ED8"/>
</svg>