<svg xmlns="http://www.w3.org/2000/svg" viewBox="0 0 24 24" fill="#3A76F0"><path d="M12 0C5.373 0 0 5.373 0 12s5.373 12 12 12 12-5.373 12-12S18.627 0 12 0zm0 2.5c.69 0 1.363.072 2.014.207l-.36 1.26A9.217 9.217 0 0 0 12 3.75c-4.556 0-8.25 3.694-8.25 8.25s3.694 8.25 8.25 8.25 8.25-3.694 8.25-8.25c0-.564-.057-1.115-.165-1.647l1.26-.36c.135.65.205 1.322.205 2.007 0 5.247-4.253 9.5-9.5 9.5S2.5 17.247 2.5 12 6.753 2.5 12 2.5zm4.604 3.396a1 1 0 0 1 1 1v2h2a1 1 0 0 1 0 2h-2v2a1 1 0 0 1-2 0v-2h-2a1 1 0 0 1 0-2h2v-2a1 1 0 0 1 1-1zM9.42 10.064c.937 0 1.696.76 1.696 1.696a1.696 1.696 0 0 1-3.392 0c0-.937.759-1.696 1.696-1.696zm5.16 0c.937 0 1.696.76 1.696 1.696a1.696 1.696 0 0 1-3.392 0c0-.937.76-1.696 1.696-1.696zM12 15c1.657 0 3.084.6 3.736 1.453a.5.5 0 1 1-.806.59C14.474 16.397 13.35 16 12 16s-2.474.397-2.93 1.043a.5.5 0 1 1-.806-.59C8.916 15.6 10.343 15 12 15z"/></svg>
